<svg width="18" height="20" viewBox="0 0 18 20" fill="none" xmlns="http://www.w3.org/2000/svg">
<path d="M3.51562 9.59965C1.57709 9.59965 0 7.91616 0 5.84684C0 3.77751 1.57709 2.09402 3.51562 2.09402C5.45416 2.09402 7.03125 3.77751 7.03125 5.84684C7.03125 7.91616 5.45416 9.59965 3.51562 9.59965ZM3.51562 3.59515C2.35245 3.59515 1.40625 4.60518 1.40625 5.84684C1.40625 7.08849 2.35245 8.09852 3.51562 8.09852C4.6788 8.09852 5.625 7.08849 5.625 5.84684C5.625 4.60518 4.6788 3.59515 3.51562 3.59515ZM18 5.09627H8.4375V6.5974H18V5.09627ZM3.51562 5.09627C3.12794 5.09627 2.8125 5.433 2.8125 5.84684C2.8125 6.26067 3.12794 6.5974 3.51562 6.5974C3.90331 6.5974 4.21875 6.26067 4.21875 5.84684C4.21875 5.433 3.90331 5.09627 3.51562 5.09627ZM3.51562 18.6064C1.57709 18.6064 0 16.9229 0 14.8536C0 12.7843 1.57709 11.1008 3.51562 11.1008C5.45416 11.1008 7.03125 12.7843 7.03125 14.8536C7.03125 16.9229 5.45416 18.6064 3.51562 18.6064ZM3.51562 12.6019C2.35245 12.6019 1.40625 13.6119 1.40625 14.8536C1.40625 16.0952 2.35245 17.1053 3.51562 17.1053C4.6788 17.1053 5.625 16.0952 5.625 14.8536C5.625 13.6119 4.6788 12.6019 3.51562 12.6019ZM18 14.103H8.4375V15.6041H18V14.103Z" fill="#D24A43"/>
</svg>
