<svg xmlns="http://www.w3.org/2000/svg" xmlns:xlink="http://www.w3.org/1999/xlink" width="1918" height="972" viewBox="0 0 1918 972">
    <defs>
        <path id="a" d="M2 0h1920v972H2z"/>
    </defs>
    <g fill="none" fill-rule="evenodd" transform="translate(-2)">
        <mask id="b" fill="#fff">
            <use xlink:href="#a"/>
        </mask>
        <use fill="#FFF" xlink:href="#a"/>
        <path fill="#F5F6FA" d="M1917 918c14.912 0 27 12.088 27 27s-12.088 27-27 27-27-12.088-27-27 12.088-27 27-27zm-1755 0c0 29.525-23.696 53.516-53.107 53.993L108 972v-54h54zm-54-54L0 972V864h108zm216 0v108H216v-26.986l-.004.432C215.758 960.152 203.763 972 189 972c-14.912 0-27-12.088-27-27s12.088-27 27-27c14.763 0 26.758 11.848 26.996 26.554l.004.413v-53.935l-.004.414C215.758 906.152 203.763 918 189 918c-14.912 0-27-12.088-27-27s12.088-27 27-27c14.763 0 26.758 11.848 26.996 26.554l.004.431V864h108zm1026 0v26.985l.004-.431C1350.242 875.848 1362.237 864 1377 864c14.763 0 26.758 11.848 26.996 26.554l.004.431V864h108v108h-108v-26.986l-.004.432C1403.758 960.152 1391.763 972 1377 972c-14.763 0-26.758-11.848-26.996-26.554l-.004-.432V972l-54-54h54v26.942l.004-.388C1350.242 929.848 1362.237 918 1377 918c14.763 0 26.758 11.848 26.996 26.554l.004.413v-53.935l-.004.414C1403.758 906.152 1391.763 918 1377 918c-14.763 0-26.758-11.848-26.996-26.554l-.004-.389V918l-54-54h54zm-972 54v26.942l.004-.388C378.242 929.848 390.237 918 405 918c14.912 0 27 12.088 27 27s-12.088 27-27 27c-14.763 0-26.758-11.848-26.996-26.554l-.004-.432V972l-54-54h54zm548-54c55.228 0 100 44.772 100 100V864h108l-108 108H918v-53.956l-.007.849C917.516 948.304 893.525 972 864 972c-29.823 0-54-24.177-54-54s24.177-54 54-54c29.525 0 53.516 23.696 53.993 53.107l.007.86V864h8zM540 0v100C540 45.324 583.88.896 638.346.013L640 0h8v108H548c55.228 0 100 44.772 100 100v-46h54l-54 54v108H548c55.228 0 100 44.772 100 100v-46h54l-54 54v108H548c55.228 0 100 44.772 100 100v-46h54l-54 54v108H548c55.228 0 100 44.772 100 100v-46h54l-54 54v108H540L432 864h108v-53.956l-.007.849C539.516 840.304 515.525 864 486 864c-29.525 0-53.516-23.696-53.993-53.107l-.007-.849-.007.84c-.467 29.119-23.983 52.637-53.1 53.109L378 864v-54h54c0-29.823 24.177-54 54-54 29.525 0 53.516 23.696 53.993 53.107l.007.86V756L432 648h108v-53.956l-.007.849C539.516 624.304 515.525 648 486 648c-29.525 0-53.516-23.696-53.993-53.107l-.007-.849-.007.84c-.467 29.119-23.983 52.637-53.1 53.109L378 648v-54h54c0-29.823 24.177-54 54-54 29.525 0 53.516 23.696 53.993 53.107l.007.86V540L432 432h108v-53.956l-.007.849C539.516 408.304 515.525 432 486 432c-29.525 0-53.516-23.696-53.993-53.107l-.007-.849-.007.84c-.467 29.119-23.983 52.637-53.1 53.109L378 432v-54h54c0-29.823 24.177-54 54-54 29.525 0 53.516 23.696 53.993 53.107l.007.86V324L432 216h108v-53.956l-.007.849C539.516 192.304 515.525 216 486 216c-29.525 0-53.516-23.696-53.993-53.107l-.007-.849-.007.84c-.467 29.119-23.983 52.637-53.1 53.109L378 216v-54h54c0-29.823 24.177-54 54-54 29.525 0 53.516 23.696 53.993 53.107l.007.86V108L432 0h108zm1296 864l-54 108-54-108h108zm54 54c0 29.525-23.696 53.516-53.107 53.993L1836 972v-54h54zm-1107 0c14.912 0 27 12.088 27 27s-12.088 27-27 27-27-12.088-27-27 12.088-27 27-27zm837-54v100c0-54.676 43.88-99.104 98.346-99.987L1720 864h8v108h-108l-108-108h108zM810 756v108h-54l-54 108-54-108h54V756h108zm432 108c29.525 0 53.516 23.696 53.993 53.107l.007.893c0 29.823-24.177 54-54 54-29.525 0-53.516-23.696-53.993-53.107l-.007-.849-.007.84c-.467 29.119-23.983 52.637-53.1 53.109L1134 972v-54h54c0-29.823 24.177-54 54-54zm-602 0H540v100c0-54.676 43.88-99.104 98.346-99.987L640 864zm224 27c-14.912 0-27 12.088-27 27s12.088 27 27 27 27-12.088 27-27-12.088-27-27-27zm-702-27c0 29.525-23.696 53.516-53.107 53.993L108 918v-54h54zm1755 0c14.912 0 27 12.088 27 27s-12.088 27-27 27-27-12.088-27-27 12.088-27 27-27zm-73-108c55.228 0 100 44.772 100 100v8h-54c0 29.525-23.696 53.516-53.107 53.993L1836 918V756h8zM378 864v26.985l.004-.431C378.242 875.848 390.237 864 405 864c14.912 0 27 12.088 27 27s-12.088 27-27 27c-14.763 0-26.758-11.848-26.996-26.554l-.004-.389V918l-54-54h54zm810 0c0 29.525-23.696 53.516-53.107 53.993L1134 918v-54h54zm-405 0c14.912 0 27 12.088 27 27s-12.088 27-27 27-27-12.088-27-27 12.088-27 27-27zM162 756l-54 108-54-108h108zm162-108v108h54L270 864v-53.956l-.007.849C269.516 840.304 245.525 864 216 864c-29.823 0-54-24.177-54-54s24.177-54 54-54c29.525 0 53.516 23.696 53.993 53.107l.007.86V756h-54v-26.986l-.004.432C215.758 744.152 203.763 756 189 756c-14.912 0-27-12.088-27-27s12.088-27 27-27c14.763 0 26.758 11.848 26.996 26.554l.004.413v-53.935l-.004.414C215.758 690.152 203.763 702 189 702c-14.912 0-27-12.088-27-27s12.088-27 27-27c14.763 0 26.758 11.848 26.996 26.554l.004.431V648h108zm972 162v26.942l.004-.388C1296.242 821.848 1308.237 810 1323 810c14.912 0 27 12.088 27 27s-12.088 27-27 27c-14.763 0-26.758-11.848-26.996-26.554l-.004-.432V864h-54v-54h54zM27 810c14.912 0 27 12.088 27 27s-12.088 27-27 27-27-12.088-27-27 12.088-27 27-27zm1647-54c29.823 0 54 24.177 54 54s-24.177 54-54 54c-29.525 0-53.516-23.696-53.993-53.107l-.007-.849-.007.84c-.467 29.119-23.983 52.637-53.1 53.109L1566 864v-54h54c0-29.823 24.177-54 54-54zm-324-108v26.985l.004-.431C1350.242 659.848 1362.237 648 1377 648c14.763 0 26.758 11.848 26.996 26.554l.004.431V648h108v108h54l-108 108v-53.956l-.007.849C1457.516 840.304 1433.525 864 1404 864c-29.823 0-54-24.177-54-54s24.177-54 54-54c29.525 0 53.516 23.696 53.993 53.107l.007.86V756h-54v-26.986l-.004.432C1403.758 744.152 1391.763 756 1377 756c-14.763 0-26.758-11.848-26.996-26.554l-.004-.432V756l-54-54h54v26.942l.004-.388C1350.242 713.848 1362.237 702 1377 702c14.763 0 26.758 11.848 26.996 26.554l.004.413v-53.935l-.004.414C1403.758 690.152 1391.763 702 1377 702c-14.763 0-26.758-11.848-26.996-26.554l-.004-.389V702l-54-54h54zm486 162l-54 54v-26.986l-.004.432C1781.758 852.152 1769.763 864 1755 864c-14.912 0-27-12.088-27-27s12.088-27 27-27c14.763 0 26.758 11.848 26.996 26.554l.004.413V810h54zm-594-54v54h-54c0 29.823-24.177 54-54 54s-54-24.177-54-54 24.177-54 54-54c29.525 0 53.516 23.696 53.993 53.107l.007.86V756h54zm-324 0v108L810 756h108zm54 54v26.942l.004-.388C972.242 821.848 984.237 810 999 810c14.763 0 26.758 11.848 26.996 26.554l.004.413V810h54l-54 54v-26.986l-.004.432C1025.758 852.152 1013.763 864 999 864c-14.763 0-26.758-11.848-26.996-26.554l-.004-.432V864l-54-54h54zm-486-27c-14.912 0-27 12.088-27 27s12.088 27 27 27 27-12.088 27-27-12.088-27-27-27zm648 0c-14.912 0-27 12.088-27 27s12.088 27 27 27 27-12.088 27-27-12.088-27-27-27zm540 0c-14.912 0-27 12.088-27 27s12.088 27 27 27 27-12.088 27-27-12.088-27-27-27zm-972-27l-54 54v-54h54zm224-108c55.228 0 100 44.772 100 100V648h108l-108 108h-54v26.985l.004-.431C972.242 767.848 984.237 756 999 756c14.763 0 26.758 11.848 26.996 26.554l.004.431V756h54l-54 54v-26.968l-.004.414C1025.758 798.152 1013.763 810 999 810c-14.763 0-26.758-11.848-26.996-26.554l-.004-.389V810l-54-54v-53.956l-.007.849C917.516 732.304 893.525 756 864 756c-29.823 0-54-24.177-54-54s24.177-54 54-54c29.525 0 53.516 23.696 53.993 53.107l.007.86V648h8zM432 756c0 29.525-23.696 53.516-53.107 53.993L378 810v-54h54zm1188 0c0 29.525-23.696 53.516-53.107 53.993L1566 810v-54h54zm216 0l-54 54v-26.968l-.004.414C1781.758 798.152 1769.763 810 1755 810c-14.912 0-27-12.088-27-27s12.088-27 27-27c14.763 0 26.758 11.848 26.996 26.554l.004.431V756h54zM27 756c14.912 0 27 12.088 27 27s-12.088 27-27 27-27-12.088-27-27 12.088-27 27-27zm1296 0c14.912 0 27 12.088 27 27s-12.088 27-27 27-27-12.088-27-27 12.088-27 27-27zm-945-54v26.942l.004-.388C378.242 713.848 390.237 702 405 702c14.912 0 27 12.088 27 27s-12.088 27-27 27c-14.763 0-26.758-11.848-26.996-26.554l-.004-.432V756l-54-54h54zm405 0c14.912 0 27 12.088 27 27s-12.088 27-27 27-27-12.088-27-27 12.088-27 27-27zm459-54c29.525 0 53.516 23.696 53.993 53.107l.007.893c0 29.823-24.177 54-54 54-29.525 0-53.516-23.696-53.993-53.107l-.007-.849-.007.84c-.467 29.119-23.983 52.637-53.1 53.109L1134 756v-54h54c0-29.823 24.177-54 54-54zM162 702c0 29.525-23.696 53.516-53.107 53.993L108 756v-54h54zm1728 0c0 29.525-23.696 53.516-53.107 53.993L1836 756v-54h54zm-54-54l-54 108-54-108h108zm-216 0v100c0-54.676 43.88-99.104 98.346-99.987L1720 648h8v108h-108l-108-108h108zM810 540v108h-54l-54 108-54-108h54V540h108zm1107 162c14.912 0 27 12.088 27 27s-12.088 27-27 27-27-12.088-27-27 12.088-27 27-27zM108 648L0 756V648h108zm532 0H540v100c0-54.676 43.88-99.104 98.346-99.987L640 648zm224 27c-14.912 0-27 12.088-27 27s12.088 27 27 27 27-12.088 27-27-12.088-27-27-27zm-81-27c14.912 0 27 12.088 27 27s-12.088 27-27 27-27-12.088-27-27 12.088-27 27-27zm1061-108c55.228 0 100 44.772 100 100v8h-54c0 29.525-23.696 53.516-53.107 53.993L1836 702V540h8zM162 648c0 29.525-23.696 53.516-53.107 53.993L108 702v-54h54zm216 0v26.985l.004-.431C378.242 659.848 390.237 648 405 648c14.912 0 27 12.088 27 27s-12.088 27-27 27c-14.763 0-26.758-11.848-26.996-26.554l-.004-.389V702l-54-54h54zm810 0c0 29.525-23.696 53.516-53.107 53.993L1134 702v-54h54zm729 0c14.912 0 27 12.088 27 27s-12.088 27-27 27-27-12.088-27-27 12.088-27 27-27zm-567-216v26.985l.004-.431C1350.242 443.848 1362.237 432 1377 432c14.763 0 26.758 11.848 26.996 26.554l.004.431V432h108v108h54l-108 108v-53.956l-.007.849C1457.516 624.304 1433.525 648 1404 648c-29.823 0-54-24.177-54-54s24.177-54 54-54c29.525 0 53.516 23.696 53.993 53.107l.007.86V540h-54v-26.986l-.004.432C1403.758 528.152 1391.763 540 1377 540c-14.763 0-26.758-11.848-26.996-26.554l-.004-.432V540l-54-54h54v26.942l.004-.388C1350.242 497.848 1362.237 486 1377 486c14.763 0 26.758 11.848 26.996 26.554l.004.413v-53.935l-.004.414C1403.758 474.152 1391.763 486 1377 486c-14.763 0-26.758-11.848-26.996-26.554l-.004-.389V486l-54-54h54zM972 594v26.942l.004-.388C972.242 605.848 984.237 594 999 594c14.763 0 26.758 11.848 26.996 26.554l.004.413V594h54l-54 54v-26.986l-.004.432C1025.758 636.152 1013.763 648 999 648c-14.763 0-26.758-11.848-26.996-26.554l-.004-.432V648l-54-54h54zm-945 0c14.912 0 27 12.088 27 27s-12.088 27-27 27-27-12.088-27-27 12.088-27 27-27zm1269 0v26.942l.004-.388C1296.242 605.848 1308.237 594 1323 594c14.912 0 27 12.088 27 27s-12.088 27-27 27c-14.763 0-26.758-11.848-26.996-26.554l-.004-.432V648h-54v-54h54zM324 432v108h54L270 648v-53.956l-.007.849C269.516 624.304 245.525 648 216 648c-29.823 0-54-24.177-54-54s24.177-54 54-54c29.525 0 53.516 23.696 53.993 53.107l.007.86V540h-54v-26.986l-.004.432C215.758 528.152 203.763 540 189 540c-14.912 0-27-12.088-27-27s12.088-27 27-27c14.763 0 26.758 11.848 26.996 26.554l.004.413v-53.935l-.004.414C215.758 474.152 203.763 486 189 486c-14.912 0-27-12.088-27-27s12.088-27 27-27c14.763 0 26.758 11.848 26.996 26.554l.004.431V432h108zm1512 162l-54 54v-26.986l-.004.432C1781.758 636.152 1769.763 648 1755 648c-14.912 0-27-12.088-27-27s12.088-27 27-27c14.763 0 26.758 11.848 26.996 26.554l.004.413V594h54zm-162-54c29.823 0 54 24.177 54 54s-24.177 54-54 54c-29.525 0-53.516-23.696-53.993-53.107l-.007-.849-.007.84c-.467 29.119-23.983 52.637-53.1 53.109L1566 648v-54h54c0-29.823 24.177-54 54-54zm-756 0v108L810 540h108zm324 0v54h-54c0 29.823-24.177 54-54 54s-54-24.177-54-54 24.177-54 54-54c29.525 0 53.516 23.696 53.993 53.107l.007.86V540h54zm-1080 0l-54 108-54-108h108zm324 27c-14.912 0-27 12.088-27 27s12.088 27 27 27 27-12.088 27-27-12.088-27-27-27zm648 0c-14.912 0-27 12.088-27 27s12.088 27 27 27 27-12.088 27-27-12.088-27-27-27zm540 0c-14.912 0-27 12.088-27 27s12.088 27 27 27 27-12.088 27-27-12.088-27-27-27zm-972-27l-54 54v-54h54zm224-108c55.228 0 100 44.772 100 100V432h108l-108 108h-54v26.985l.004-.431C972.242 551.848 984.237 540 999 540c14.763 0 26.758 11.848 26.996 26.554l.004.431V540h54l-54 54v-26.968l-.004.414C1025.758 582.152 1013.763 594 999 594c-14.763 0-26.758-11.848-26.996-26.554l-.004-.389V594l-54-54v-53.956l-.007.849C917.516 516.304 893.525 540 864 540c-29.823 0-54-24.177-54-54s24.177-54 54-54c29.525 0 53.516 23.696 53.993 53.107l.007.86V432h8zM27 540c14.912 0 27 12.088 27 27s-12.088 27-27 27-27-12.088-27-27 12.088-27 27-27zm405 0c0 29.525-23.696 53.516-53.107 53.993L378 594v-54h54zm1404 0l-54 54v-26.968l-.004.414C1781.758 582.152 1769.763 594 1755 594c-14.912 0-27-12.088-27-27s12.088-27 27-27c14.763 0 26.758 11.848 26.996 26.554l.004.431V540h54zm-216 0c0 29.525-23.696 53.516-53.107 53.993L1566 594v-54h54zm-297 0c14.912 0 27 12.088 27 27s-12.088 27-27 27-27-12.088-27-27 12.088-27 27-27zm567-54c0 29.525-23.696 53.516-53.107 53.993L1836 540v-54h54zm-648-54c29.525 0 53.516 23.696 53.993 53.107l.007.893c0 29.823-24.177 54-54 54-29.525 0-53.516-23.696-53.993-53.107l-.007-.849-.007.84c-.467 29.119-23.983 52.637-53.1 53.109L1134 540v-54h54c0-29.823 24.177-54 54-54zm378 0v100c0-54.676 43.88-99.104 98.346-99.987L1720 432h8v108h-108l-108-108h108zm-1512 0L0 540V432h108zm1809 54c14.912 0 27 12.088 27 27s-12.088 27-27 27-27-12.088-27-27 12.088-27 27-27zm-1755 0c0 29.525-23.696 53.516-53.107 53.993L108 540v-54h54zm648-162v108h-54l-54 108-54-108h54V324h108zm1026 108l-54 108-54-108h108zM378 486v26.942l.004-.388C378.242 497.848 390.237 486 405 486c14.912 0 27 12.088 27 27s-12.088 27-27 27c-14.763 0-26.758-11.848-26.996-26.554l-.004-.432V540l-54-54h54zm405 0c14.912 0 27 12.088 27 27s-12.088 27-27 27-27-12.088-27-27 12.088-27 27-27zm-143-54H540v100c0-54.676 43.88-99.104 98.346-99.987L640 432zm224 27c-14.912 0-27 12.088-27 27s12.088 27 27 27 27-12.088 27-27-12.088-27-27-27zm1053-27c14.912 0 27 12.088 27 27s-12.088 27-27 27-27-12.088-27-27 12.088-27 27-27zm-1755 0c0 29.525-23.696 53.516-53.107 53.993L108 486v-54h54zm1682-108c55.228 0 100 44.772 100 100v8h-54c0 29.525-23.696 53.516-53.107 53.993L1836 486V324h8zM783 432c14.912 0 27 12.088 27 27s-12.088 27-27 27-27-12.088-27-27 12.088-27 27-27zm-405 0v26.985l.004-.431C378.242 443.848 390.237 432 405 432c14.912 0 27 12.088 27 27s-12.088 27-27 27c-14.763 0-26.758-11.848-26.996-26.554l-.004-.389V486l-54-54h54zm810 0c0 29.525-23.696 53.516-53.107 53.993L1134 486v-54h54zM324 216v108h54L270 432v-53.956l-.007.849C269.516 408.304 245.525 432 216 432c-29.823 0-54-24.177-54-54s24.177-54 54-54c29.525 0 53.516 23.696 53.993 53.107l.007.86V324h-54v-26.986l-.004.432C215.758 312.152 203.763 324 189 324c-14.912 0-27-12.088-27-27s12.088-27 27-27c14.763 0 26.758 11.848 26.996 26.554l.004.413v-53.935l-.004.414C215.758 258.152 203.763 270 189 270c-14.912 0-27-12.088-27-27s12.088-27 27-27c14.763 0 26.758 11.848 26.996 26.554l.004.431V216h108zm648 162v26.942l.004-.388C972.242 389.848 984.237 378 999 378c14.763 0 26.758 11.848 26.996 26.554l.004.413V378h54l-54 54v-26.986l-.004.432C1025.758 420.152 1013.763 432 999 432c-14.763 0-26.758-11.848-26.996-26.554l-.004-.432V432l-54-54h54zm702-54c29.823 0 54 24.177 54 54s-24.177 54-54 54c-29.525 0-53.516-23.696-53.993-53.107l-.007-.849-.007.84c-.467 29.119-23.983 52.637-53.1 53.109L1566 432v-54h54c0-29.823 24.177-54 54-54zm-378 54v26.942l.004-.388C1296.242 389.848 1308.237 378 1323 378c14.912 0 27 12.088 27 27s-12.088 27-27 27c-14.763 0-26.758-11.848-26.996-26.554l-.004-.432V432h-54v-54h54zM162 324l-54 108-54-108h108zm1080 0v54h-54c0 29.823-24.177 54-54 54s-54-24.177-54-54 24.177-54 54-54c29.525 0 53.516 23.696 53.993 53.107l.007.86V324h54zM27 378c14.912 0 27 12.088 27 27s-12.088 27-27 27-27-12.088-27-27 12.088-27 27-27zm891-54v108L810 324h108zm432-108v26.985l.004-.431C1350.242 227.848 1362.237 216 1377 216c14.763 0 26.758 11.848 26.996 26.554l.004.431V216h108v108h54l-108 108v-53.956l-.007.849C1457.516 408.304 1433.525 432 1404 432c-29.823 0-54-24.177-54-54s24.177-54 54-54c29.525 0 53.516 23.696 53.993 53.107l.007.86V324h-54v-26.986l-.004.432C1403.758 312.152 1391.763 324 1377 324c-14.763 0-26.758-11.848-26.996-26.554l-.004-.432V324l-54-54h54v26.942l.004-.388C1350.242 281.848 1362.237 270 1377 270c14.763 0 26.758 11.848 26.996 26.554l.004.413v-53.935l-.004.414C1403.758 258.152 1391.763 270 1377 270c-14.763 0-26.758-11.848-26.996-26.554l-.004-.389V270l-54-54h54zm486 162l-54 54v-26.986l-.004.432C1781.758 420.152 1769.763 432 1755 432c-14.912 0-27-12.088-27-27s12.088-27 27-27c14.763 0 26.758 11.848 26.996 26.554l.004.413V378h54zm-702-27c-14.912 0-27 12.088-27 27s12.088 27 27 27 27-12.088 27-27-12.088-27-27-27zm540 0c-14.912 0-27 12.088-27 27s12.088 27 27 27 27-12.088 27-27-12.088-27-27-27zm-1188 0c-14.912 0-27 12.088-27 27s12.088 27 27 27 27-12.088 27-27-12.088-27-27-27zm440-135c55.228 0 100 44.772 100 100V216h108l-108 108h-54v26.985l.004-.431C972.242 335.848 984.237 324 999 324c14.763 0 26.758 11.848 26.996 26.554l.004.431V324h54l-54 54v-26.968l-.004.414C1025.758 366.152 1013.763 378 999 378c-14.763 0-26.758-11.848-26.996-26.554l-.004-.389V378l-54-54v-53.956l-.007.849C917.516 300.304 893.525 324 864 324c-29.823 0-54-24.177-54-54s24.177-54 54-54c29.525 0 53.516 23.696 53.993 53.107l.007.86V216h8zM702 324l-54 54v-54h54zm918 0c0 29.525-23.696 53.516-53.107 53.993L1566 378v-54h54zm216 0l-54 54v-26.968l-.004.414C1781.758 366.152 1769.763 378 1755 378c-14.912 0-27-12.088-27-27s12.088-27 27-27c14.763 0 26.758 11.848 26.996 26.554l.004.431V324h54zM27 324c14.912 0 27 12.088 27 27s-12.088 27-27 27-27-12.088-27-27 12.088-27 27-27zm405 0c0 29.525-23.696 53.516-53.107 53.993L378 378v-54h54zm891 0c14.912 0 27 12.088 27 27s-12.088 27-27 27-27-12.088-27-27 12.088-27 27-27zm-945-54v26.942l.004-.388C378.242 281.848 390.237 270 405 270c14.912 0 27 12.088 27 27s-12.088 27-27 27c-14.763 0-26.758-11.848-26.996-26.554l-.004-.432V324l-54-54h54zm432-162v108h-54l-54 108-54-108h54V108h108zm1107 162c14.912 0 27 12.088 27 27s-12.088 27-27 27-27-12.088-27-27 12.088-27 27-27zm-675-54c29.525 0 53.516 23.696 53.993 53.107l.007.893c0 29.823-24.177 54-54 54-29.525 0-53.516-23.696-53.993-53.107l-.007-.849-.007.84c-.467 29.119-23.983 52.637-53.1 53.109L1134 324v-54h54c0-29.823 24.177-54 54-54zM162 270c0 29.525-23.696 53.516-53.107 53.993L108 324v-54h54zm621 0c14.912 0 27 12.088 27 27s-12.088 27-27 27-27-12.088-27-27 12.088-27 27-27zm837-54v100c0-54.676 43.88-99.104 98.346-99.987L1720 216h8v108h-108l-108-108h108zm-1512 0L0 324V216h108zm1728 0l-54 108-54-108h108zm54 54c0 29.525-23.696 53.516-53.107 53.993L1836 324v-54h54zM640 216H540v100c0-54.676 43.88-99.104 98.346-99.987L640 216zm224 27c-14.912 0-27 12.088-27 27s12.088 27 27 27 27-12.088 27-27-12.088-27-27-27zm1053-27c14.912 0 27 12.088 27 27s-12.088 27-27 27-27-12.088-27-27 12.088-27 27-27zm-1755 0c0 29.525-23.696 53.516-53.107 53.993L108 270v-54h54zm1026 0c0 29.525-23.696 53.516-53.107 53.993L1134 270v-54h54zm656-108c55.228 0 100 44.772 100 100v8h-54c0 29.525-23.696 53.516-53.107 53.993L1836 270V108h8zM783 216c14.912 0 27 12.088 27 27s-12.088 27-27 27-27-12.088-27-27 12.088-27 27-27zm-405 0v26.985l.004-.431C378.242 227.848 390.237 216 405 216c14.912 0 27 12.088 27 27s-12.088 27-27 27c-14.763 0-26.758-11.848-26.996-26.554l-.004-.389V270l-54-54h54zM27 162c14.912 0 27 12.088 27 27s-12.088 27-27 27-27-12.088-27-27 12.088-27 27-27zm1269 0v26.942l.004-.388C1296.242 173.848 1308.237 162 1323 162c14.912 0 27 12.088 27 27s-12.088 27-27 27c-14.763 0-26.758-11.848-26.996-26.554l-.004-.432V216h-54v-54h54zM324 0v108h54L270 216v-53.956l-.007.849C269.516 192.304 245.525 216 216 216c-29.823 0-54-24.177-54-54s24.177-54 54-54c29.525 0 53.516 23.696 53.993 53.107l.007.86V108h-54V81.014l-.004.432C215.758 96.152 203.763 108 189 108c-14.912 0-27-12.088-27-27s12.088-27 27-27c14.763 0 26.758 11.848 26.996 26.554l.004.413V0h108zm648 162v26.942l.004-.388C972.242 173.848 984.237 162 999 162c14.763 0 26.758 11.848 26.996 26.554l.004.413V162h54l-54 54v-26.986l-.004.432C1025.758 204.152 1013.763 216 999 216c-14.763 0-26.758-11.848-26.996-26.554l-.004-.432V216l-54-54h54zm864 0l-54 54v-26.986l-.004.432C1781.758 204.152 1769.763 216 1755 216c-14.912 0-27-12.088-27-27s12.088-27 27-27c14.763 0 26.758 11.848 26.996 26.554l.004.413V162h54zM1512 0v108h54l-108 108v-53.956l-.007.849C1457.516 192.304 1433.525 216 1404 216c-29.823 0-54-24.177-54-54s24.177-54 54-54c29.525 0 53.516 23.696 53.993 53.107l.007.86V108h-54V81.014l-.004.432C1403.758 96.152 1391.763 108 1377 108c-14.763 0-26.758-11.848-26.996-26.554l-.004-.432V108l-54-54h54v26.942l.004-.388C1350.242 65.848 1362.237 54 1377 54c14.763 0 26.758 11.848 26.996 26.554l.004.413V0h108zM918 108v108L810 108h108zm324 0v54h-54c0 29.823-24.177 54-54 54s-54-24.177-54-54 24.177-54 54-54c29.525 0 53.516 23.696 53.993 53.107l.007.86V108h54zm432 0c29.823 0 54 24.177 54 54s-24.177 54-54 54c-29.525 0-53.516-23.696-53.993-53.107l-.007-.849-.007.84c-.467 29.119-23.983 52.637-53.1 53.109L1566 216v-54h54c0-29.823 24.177-54 54-54zm-1512 0l-54 108-54-108h108zm1512 27c-14.912 0-27 12.088-27 27s12.088 27 27 27 27-12.088 27-27-12.088-27-27-27zm-540 0c-14.912 0-27 12.088-27 27s12.088 27 27 27 27-12.088 27-27-12.088-27-27-27zm-648 0c-14.912 0-27 12.088-27 27s12.088 27 27 27 27-12.088 27-27-12.088-27-27-27zM926 0c55.228 0 100 44.772 100 100V0h108l-108 108h-54v26.985l.004-.431C972.242 119.848 984.237 108 999 108c14.763 0 26.758 11.848 26.996 26.554l.004.431V108h54l-54 54v-26.968l-.004.414C1025.758 150.152 1013.763 162 999 162c-14.763 0-26.758-11.848-26.996-26.554l-.004-.389V162l-54-54V54.044l-.007.849C917.516 84.304 893.525 108 864 108c-29.823 0-54-24.177-54-54s24.177-54 54-54c29.525 0 53.516 23.696 53.993 53.107L918 54V0h8zM27 108c14.912 0 27 12.088 27 27s-12.088 27-27 27-27-12.088-27-27 12.088-27 27-27zm675 0l-54 54v-54h54zm918 0c0 29.525-23.696 53.516-53.107 53.993L1566 162v-54h54zm216 0l-54 54v-26.968l-.004.414C1781.758 150.152 1769.763 162 1755 162c-14.912 0-27-12.088-27-27s12.088-27 27-27c14.763 0 26.758 11.848 26.996 26.554l.004.431V108h54zm-513 0c14.912 0 27 12.088 27 27s-12.088 27-27 27-27-12.088-27-27 12.088-27 27-27zm-891 0c0 29.525-23.696 53.516-53.107 53.993L378 162v-54h54zM756 0l-54 108L648 0h108zm864 0v100c0-54.676 43.88-99.104 98.346-99.987L1720 0h8v108h-108L1512 0h108zM378 54v26.942l.004-.388C378.242 65.848 390.237 54 405 54c14.912 0 27 12.088 27 27s-12.088 27-27 27c-14.763 0-26.758-11.848-26.996-26.554l-.004-.432V108l-54-54h54zm-216 0c0 29.525-23.696 53.516-53.107 53.993L108 108V54h54zM108 0L0 108V0h108zm1809 54c14.912 0 27 12.088 27 27s-12.088 27-27 27-27-12.088-27-27 12.088-27 27-27zm-81-54l-54 108-54-108h108zm54 54c0 29.525-23.696 53.516-53.107 53.993L1836 108V54h54zM783 54c14.912 0 27 12.088 27 27s-12.088 27-27 27-27-12.088-27-27 12.088-27 27-27zm459-54c29.525 0 53.516 23.696 53.993 53.107L1296 54c0 29.823-24.177 54-54 54-29.525 0-53.516-23.696-53.993-53.107l-.007-.849-.007.84c-.467 29.119-23.983 52.637-53.1 53.109L1134 108V54h54c0-29.823 24.177-54 54-54zM864 27c-14.912 0-27 12.088-27 27s12.088 27 27 27 27-12.088 27-27-12.088-27-27-27zM1890 0c0 29.525-23.696 53.516-53.107 53.993L1836 54V0h54zm27 0c14.912 0 27 12.088 27 27s-12.088 27-27 27-27-12.088-27-27 12.088-27 27-27zm-729 0c0 29.525-23.696 53.516-53.107 53.993L1134 54V0h54zm189 0c14.912 0 27 12.088 27 27s-12.088 27-27 27-27-12.088-27-27 12.088-27 27-27zM405 0c14.912 0 27 12.088 27 27s-12.088 27-27 27-27-12.088-27-27 12.088-27 27-27zm378 0c14.912 0 27 12.088 27 27s-12.088 27-27 27-27-12.088-27-27 12.088-27 27-27zM378 0v54L324 0h54zm972 0v54l-54-54h54zM162 0c0 29.525-23.696 53.516-53.107 53.993L108 54V0h54zm27 0c14.912 0 27 12.088 27 27s-12.088 27-27 27-27-12.088-27-27 12.088-27 27-27z" mask="url(#b)" transform="matrix(1 0 0 -1 0 972)"/>
    </g>
</svg>
