<svg width="18" height="20" viewBox="0 0 18 20" fill="none" xmlns="http://www.w3.org/2000/svg">
<g clip-path="url(#clip0)">
<path d="M8.33562 14.3425V10.9643H5.17156C4.78322 10.9643 4.46843 10.6282 4.46843 10.2137C4.46843 9.79917 4.78322 9.46314 5.17156 9.46314H8.33562V6.04876C8.33562 5.63422 8.65041 5.29819 9.03874 5.29819C9.42708 5.29819 9.74187 5.63422 9.74187 6.04876V9.46314H12.9059C13.2943 9.46314 13.6091 9.79917 13.6091 10.2137C13.6091 10.6282 13.2943 10.9643 12.9059 10.9643H9.74187V14.3425C9.74187 14.757 9.42708 15.093 9.03874 15.093C8.65041 15.093 8.33562 14.757 8.33562 14.3425ZM17.2969 13.7796C17.6852 13.7796 18 13.4435 18 13.029V3.60943C18 1.95399 16.7383 0.607178 15.1875 0.607178H2.8125C1.26169 0.607178 0 1.95399 0 3.60943V16.8193C0 18.4748 1.26169 19.8216 2.8125 19.8216H15.1875C16.7383 19.8216 18 18.4748 18 16.8193C18 16.4048 17.6852 16.0688 17.2969 16.0688C16.9085 16.0688 16.5938 16.4048 16.5938 16.8193C16.5938 17.647 15.9629 18.3205 15.1875 18.3205H2.8125C2.03709 18.3205 1.40625 17.647 1.40625 16.8193V3.60943C1.40625 2.78171 2.03709 2.1083 2.8125 2.1083H15.1875C15.9629 2.1083 16.5938 2.78171 16.5938 3.60943V13.029C16.5938 13.4435 16.9085 13.7796 17.2969 13.7796Z" fill="white"/>
</g>
<defs>
<clipPath id="clip0">
<rect y="0.607178" width="18" height="19.2144" fill="white"/>
</clipPath>
</defs>
</svg>
